<?xml version="1.0" standalone="no"?>
<!DOCTYPE svg PUBLIC "-//W3C//DTD SVG 20010904//EN"
 "http://www.w3.org/TR/2001/REC-SVG-20010904/DTD/svg10.dtd">
<svg version="1.0" xmlns="http://www.w3.org/2000/svg"
 width="700.000000pt" height="700.000000pt" viewBox="0 0 700.000000 700.000000"
 preserveAspectRatio="xMidYMid meet">
<metadata>
Created by potrace 1.11, written by Peter Selinger 2001-2013
</metadata>
<g transform="translate(0.000000,700.000000) scale(0.100000,-0.100000)"
fill="#000000" stroke="none">
<path d="M20 3495 l0 -3495 3490 0 3490 0 0 3495 0 3495 -3490 0 -3490 0 0
-3495z m4830 1596 c222 -35 369 -77 512 -146 123 -61 192 -109 280 -196 78
-77 98 -115 98 -184 0 -102 -145 -177 -399 -206 -196 -22 -330 8 -591 133
-187 90 -307 140 -435 183 -242 81 -479 119 -735 118 -240 0 -451 -34 -675
-108 -170 -56 -403 -190 -422 -243 -4 -9 -9 -19 -12 -22 -13 -11 -33 -67 -37
-102 -5 -40 17 -93 59 -139 149 -165 666 -333 1472 -479 247 -45 596 -123 745
-167 444 -130 702 -271 782 -428 89 -172 -60 -469 -341 -681 -108 -81 -342
-198 -516 -257 -254 -87 -529 -148 -880 -196 -202 -27 -255 -34 -400 -47 -767
-68 -1297 -27 -1700 131 -258 102 -413 229 -470 387 -21 58 -24 184 -6 246 36
127 204 204 476 218 199 11 309 -24 393 -124 86 -103 226 -236 303 -288 134
-91 294 -161 462 -205 255 -65 658 -75 917 -23 346 71 663 263 704 427 24 98
-78 192 -288 264 -131 44 -490 127 -642 147 -125 17 -640 110 -1024 186 -359
71 -498 113 -685 206 -157 79 -238 142 -301 236 -103 152 -76 372 65 548 67
83 86 102 166 165 334 261 926 474 1635 590 199 32 461 62 620 71 69 3 127 9
130 11 3 3 140 3 305 0 233 -4 330 -10 435 -26z"/>
</g>
</svg>
