<?xml version="1.0" standalone="no"?>
<!DOCTYPE svg PUBLIC "-//W3C//DTD SVG 20010904//EN"
 "http://www.w3.org/TR/2001/REC-SVG-20010904/DTD/svg10.dtd">
<svg version="1.0" xmlns="http://www.w3.org/2000/svg"
 width="786.000000pt" height="786.000000pt" viewBox="0 0 786.000000 786.000000"
 preserveAspectRatio="xMidYMid meet">
<metadata>
Created by potrace 1.11, written by Peter Selinger 2001-2013
</metadata>
<g transform="translate(0.000000,786.000000) scale(0.100000,-0.100000)"
fill="#000000" stroke="none">
<path d="M4725 7779 c-1112 -55 -2096 -805 -2448 -1865 -67 -202 -123 -462
-104 -480 6 -6 435 -332 952 -724 517 -392 942 -714 944 -716 4 -4 -15 -33
-46 -71 l-18 -22 -925 703 c-580 440 -928 699 -932 692 -4 -6 -8 -40 -7 -76
l0 -65 894 -678 895 -678 -33 -44 c-17 -24 -35 -43 -39 -42 -4 1 -387 291
-853 645 -465 354 -852 645 -860 648 -11 5 -13 -9 -8 -73 3 -43 8 -81 12 -84
3 -4 317 -242 696 -529 380 -288 745 -566 813 -617 133 -102 129 -96 80 -157
l-24 -28 -773 587 c-425 323 -775 584 -778 581 -3 -3 0 -41 7 -85 l12 -80 728
-552 728 -552 -31 -43 c-18 -24 -34 -43 -37 -44 -3 0 -305 227 -670 505 -366
277 -666 501 -668 497 -5 -16 49 -178 66 -194 9 -9 280 -217 601 -460 322
-244 586 -448 588 -453 1 -6 -12 -28 -30 -49 l-33 -39 -523 397 c-287 219
-524 396 -526 394 -4 -4 91 -196 107 -215 6 -8 204 -160 440 -339 235 -179
428 -327 428 -330 0 -11 -55 -84 -63 -84 -7 0 -153 110 -572 429 l-60 46 65
-85 c85 -111 285 -316 399 -410 53 -43 89 -80 86 -87 -2 -8 -146 -199 -318
-426 -1062 -1397 -1328 -1749 -1325 -1751 2 -1 28 -20 58 -42 937 -681 2234
-683 3185 -6 138 98 218 166 344 292 441 438 707 986 792 1630 17 123 17 486
0 615 -63 501 -238 945 -526 1330 -164 220 -316 373 -557 560 l-128 98 27 36
c14 20 31 42 36 48 7 10 27 -1 80 -42 57 -44 73 -53 83 -43 49 53 1573 2072
1568 2079 -3 5 -65 49 -137 97 -495 327 -1061 481 -1662 451z m-1297 -2995
c433 -329 788 -598 789 -599 6 -4 -60 -85 -68 -85 -7 0 -1225 920 -1576 1190
l-22 17 32 42 c18 23 37 39 45 36 7 -2 367 -273 800 -601z m390 5 c285 -215
523 -397 531 -404 11 -11 9 -20 -15 -54 -16 -23 -35 -40 -41 -38 -15 2 -1063
798 -1063 806 0 11 53 81 62 81 5 0 242 -176 526 -391z m859 251 l123 -92 -32
-44 c-17 -24 -33 -44 -35 -44 -2 0 -59 42 -125 93 -67 50 -126 95 -131 98 -6
4 5 28 23 53 21 29 37 43 44 38 6 -5 66 -50 133 -102z m-541 -191 c198 -149
362 -275 367 -278 10 -10 -53 -93 -67 -88 -9 4 -711 532 -739 556 -11 10 54
93 68 87 7 -2 174 -127 371 -277z m280 89 c125 -95 229 -177 231 -183 1 -5
-12 -27 -30 -48 l-32 -39 -233 176 c-127 97 -232 179 -232 182 0 6 62 84 66
84 1 0 105 -78 230 -172z"/>
</g>
</svg>
